<svg xmlns="http://www.w3.org/2000/svg" width="760" height="900" viewBox="0 0 760 900" role="img" aria-label="周末轻食概念占位图">
  <rect width="760" height="900" fill="#f7f3e8"/>
  <rect x="0" y="650" width="760" height="250" fill="#dceff4"/>
  <rect x="96" y="110" width="568" height="132" rx="8" fill="#1f2b2f"/>
  <rect x="132" y="160" width="190" height="16" rx="8" fill="#f3d58c"/>
  <rect x="132" y="194" width="280" height="16" rx="8" fill="#f3a6b1"/>
  <g transform="translate(140 340)">
    <rect x="0" y="84" width="160" height="216" rx="8" fill="#ffffff" stroke="#d9e0dc"/>
    <path d="M20 84 L140 84 L118 20 L42 20Z" fill="#87a987"/>
    <rect x="38" y="148" width="84" height="54" rx="8" fill="#f3d58c"/>
  </g>
  <g transform="translate(332 310)">
    <rect x="0" y="92" width="160" height="246" rx="22" fill="#f3a6b1"/>
    <rect x="42" y="34" width="76" height="82" rx="16" fill="#c95865"/>
    <rect x="40" y="186" width="80" height="60" rx="8" fill="#ffffff" opacity=".9"/>
  </g>
  <g transform="translate(524 356)">
    <rect x="0" y="70" width="120" height="210" rx="60" fill="#2637d5"/>
    <rect x="36" y="0" width="48" height="90" rx="20" fill="#b9ddeb"/>
  </g>
  <path d="M84 704 C220 660 368 692 488 646 C558 620 620 622 686 642" fill="none" stroke="#c95865" stroke-width="14" stroke-linecap="round"/>
</svg>
