<svg xmlns="http://www.w3.org/2000/svg" width="900" height="675" viewBox="0 0 900 675" role="img" aria-label="饮料新品上市占位图">
  <rect width="900" height="675" fill="#f7f3e8"/>
  <rect x="0" y="476" width="900" height="199" fill="#dceff4"/>
  <g transform="translate(140 80)">
    <rect x="0" y="120" width="155" height="360" rx="26" fill="#f3a6b1"/>
    <rect x="42" y="50" width="72" height="92" rx="16" fill="#c95865"/>
    <rect x="28" y="220" width="100" height="118" rx="10" fill="#ffffff" opacity=".9"/>
    <text x="78" y="272" text-anchor="middle" font-family="Arial, sans-serif" font-size="20" font-weight="800" fill="#1f2b2f">MILK</text>
  </g>
  <g transform="translate(360 60)">
    <rect x="0" y="150" width="155" height="390" rx="26" fill="#f3d58c"/>
    <rect x="42" y="70" width="72" height="100" rx="16" fill="#e5a655"/>
    <rect x="28" y="260" width="100" height="118" rx="10" fill="#ffffff" opacity=".9"/>
    <text x="78" y="312" text-anchor="middle" font-family="Arial, sans-serif" font-size="20" font-weight="800" fill="#1f2b2f">BEAN</text>
  </g>
  <g transform="translate(580 102)">
    <rect x="0" y="118" width="155" height="350" rx="26" fill="#87a987"/>
    <rect x="42" y="50" width="72" height="90" rx="16" fill="#496b54"/>
    <rect x="28" y="210" width="100" height="118" rx="10" fill="#ffffff" opacity=".9"/>
    <text x="78" y="262" text-anchor="middle" font-family="Arial, sans-serif" font-size="20" font-weight="800" fill="#1f2b2f">JOY</text>
  </g>
  <path d="M90 535 C225 505 420 520 600 492 C704 476 792 489 850 516" fill="none" stroke="#2637d5" stroke-width="15" stroke-linecap="round"/>
</svg>
