<svg xmlns="http://www.w3.org/2000/svg" width="900" height="1100" viewBox="0 0 900 1100" role="img" aria-label="消费品灵感板占位图">
  <rect width="900" height="1100" fill="#f7f3e8"/>
  <rect x="70" y="74" width="760" height="950" rx="18" fill="#ffffff"/>
  <rect x="110" y="130" width="285" height="340" fill="#dceff4"/>
  <rect x="430" y="130" width="360" height="180" fill="#f3a6b1"/>
  <rect x="430" y="340" width="360" height="130" fill="#87a987"/>
  <rect x="110" y="520" width="680" height="18" fill="#2637d5"/>
  <g transform="translate(138 600)">
    <rect x="0" y="80" width="130" height="260" rx="18" fill="#f3d58c"/>
    <rect x="24" y="32" width="82" height="70" rx="12" fill="#f0b65c"/>
    <rect x="26" y="148" width="78" height="80" rx="8" fill="#ffffff" opacity=".86"/>
    <text x="65" y="188" text-anchor="middle" font-family="Arial, sans-serif" font-size="18" font-weight="700" fill="#1f2b2f">SPRING</text>
  </g>
  <g transform="translate(330 612)">
    <rect x="0" y="60" width="130" height="280" rx="65" fill="#f3a6b1"/>
    <rect x="36" y="0" width="58" height="78" rx="14" fill="#c95865"/>
    <text x="65" y="196" text-anchor="middle" font-family="Arial, sans-serif" font-size="18" font-weight="700" fill="#ffffff">SOFT</text>
  </g>
  <g transform="translate(520 622)">
    <rect x="0" y="100" width="160" height="228" rx="12" fill="#dceff4"/>
    <path d="M30 100 C42 20 118 20 130 100Z" fill="#b9ddeb"/>
    <circle cx="80" cy="190" r="38" fill="#2637d5"/>
    <text x="80" y="276" text-anchor="middle" font-family="Arial, sans-serif" font-size="18" font-weight="700" fill="#1f2b2f">ANCHOR</text>
  </g>
</svg>
