<svg xmlns="http://www.w3.org/2000/svg" width="900" height="675" viewBox="0 0 900 675" role="img" aria-label="零售商品策略占位图">
  <rect width="900" height="675" fill="#eff6f3"/>
  <rect x="72" y="84" width="756" height="120" rx="8" fill="#1f2b2f"/>
  <rect x="92" y="116" width="150" height="18" rx="9" fill="#f3d58c"/>
  <rect x="92" y="154" width="240" height="18" rx="9" fill="#dceff4"/>
  <g transform="translate(94 270)">
    <rect x="0" y="0" width="190" height="260" rx="8" fill="#ffffff" stroke="#d9e0dc"/>
    <rect x="42" y="52" width="106" height="150" rx="18" fill="#f3a6b1"/>
    <rect x="62" y="90" width="66" height="54" rx="6" fill="#ffffff" opacity=".88"/>
  </g>
  <g transform="translate(354 270)">
    <rect x="0" y="0" width="190" height="260" rx="8" fill="#ffffff" stroke="#d9e0dc"/>
    <rect x="42" y="48" width="106" height="154" rx="18" fill="#87a987"/>
    <rect x="62" y="92" width="66" height="54" rx="6" fill="#ffffff" opacity=".88"/>
  </g>
  <g transform="translate(614 270)">
    <rect x="0" y="0" width="190" height="260" rx="8" fill="#ffffff" stroke="#d9e0dc"/>
    <rect x="42" y="52" width="106" height="150" rx="18" fill="#dceff4"/>
    <circle cx="95" cy="128" r="36" fill="#2637d5"/>
  </g>
  <path d="M188 548 L188 590 L708 590 L708 548" fill="none" stroke="#c95865" stroke-width="12" stroke-linecap="round"/>
</svg>
